<mxfile host="app.diagrams.net" modified="2023-07-05T08:38:17.908Z" agent="Mozilla/5.0 (Macintosh; Intel Mac OS X 10_15_7) AppleWebKit/537.36 (KHTML, like Gecko) Chrome/112.0.0.0 YaBrowser/23.5.1.759 Yowser/2.5 Safari/537.36" version="21.5.2" etag="FbyzJbVujS2rEmAAZtgI" type="github">
  <diagram name="Страница 1" id="kTAbGw9Xc1MsY3RcO3xy">
    <mxGraphModel>
      <root>
        <mxCell id="0" />
        <mxCell id="1" parent="0" />
      </root>
    </mxGraphModel>
  </diagram>
</mxfile>
